<svg width="124" height="56" viewBox="0 0 124 56" fill="none" xmlns="http://www.w3.org/2000/svg">
<rect width="124" height="56" rx="4" fill="#FE5C15"/>
<path d="M30.2983 34.256C32.7783 34.256 34.4743 32.896 34.4743 30.896C34.4743 29.312 33.3863 28.224 31.2423 27.6L29.7063 27.152C28.4423 26.8 27.7543 26.32 27.7543 25.504C27.7543 24.592 28.5703 24.064 29.8823 24.064C31.0503 24.064 32.3303 24.512 33.3223 25.168L34.2023 23.792C33.1302 22.96 31.6423 22.48 30.1063 22.48C27.6423 22.48 25.9622 23.712 25.9622 25.648C25.9622 27.2 27.0503 28.256 29.2103 28.848L30.9383 29.328C32.1223 29.648 32.6823 30.192 32.6823 31.056C32.6823 32.096 31.8983 32.672 30.4263 32.672C29.0182 32.672 27.8823 32.176 26.5863 31.072L25.4823 32.352C26.7943 33.568 28.4903 34.256 30.2983 34.256ZM39.6709 34.256C41.8629 34.256 43.3349 32.832 43.3349 30.752V26.192H41.6389V30.88C41.6389 31.888 40.7269 32.72 39.6709 32.72C38.6309 32.72 37.7029 31.888 37.7029 30.88V26.192H36.0069V30.752C36.0069 32.832 37.4949 34.256 39.6709 34.256ZM45.2889 34.032L46.8249 34V33.072H46.9369C47.5289 33.824 48.4409 34.256 49.4969 34.256C51.7369 34.256 53.4489 32.528 53.4489 30.096C53.4489 27.664 51.7369 25.936 49.4969 25.936C48.4569 25.936 47.5289 26.352 46.9369 27.088H46.8409L46.9849 26.064V22.224H45.2889V34.032ZM46.8569 30.096C46.8569 28.512 47.8649 27.424 49.3049 27.424C50.7449 27.424 51.7529 28.512 51.7529 30.096C51.7529 31.664 50.7449 32.768 49.3049 32.768C47.8649 32.768 46.8569 31.664 46.8569 30.096ZM57.8765 34.256C59.6045 34.256 61.0765 33.36 61.0765 31.76C61.0765 30.608 60.3565 29.76 58.7085 29.392L57.5245 29.12C56.7405 28.928 56.3405 28.624 56.3405 28.208C56.3405 27.712 56.8845 27.424 57.8285 27.424C58.7085 27.424 59.5885 27.76 60.0845 28.176L61.0605 27.04C60.3245 26.4 59.0925 25.936 57.8605 25.936C56.1645 25.936 54.6445 26.784 54.6445 28.32C54.6445 29.44 55.4285 30.288 57.0125 30.656L58.2925 30.96C59.0285 31.136 59.3805 31.408 59.3805 31.872C59.3805 32.432 58.8685 32.768 57.9565 32.768C56.9805 32.768 56.1325 32.336 55.4445 31.712L54.4205 32.832C55.2685 33.696 56.5645 34.256 57.8765 34.256ZM66.3755 34.256C67.7995 34.256 68.9835 33.648 69.7195 32.624L68.5515 31.696C68.0235 32.368 67.3035 32.704 66.3915 32.704C64.9515 32.704 63.9275 31.648 63.9275 30.096C63.9275 28.544 64.9355 27.472 66.3915 27.472C67.2875 27.472 67.9915 27.856 68.5035 28.512L69.6875 27.488C68.9675 26.544 67.7835 25.936 66.3755 25.936C63.9435 25.936 62.2315 27.664 62.2315 30.096C62.2315 32.528 63.9435 34.256 66.3755 34.256ZM71.1326 34H72.8286V29.76C72.8286 28.48 73.8846 27.776 75.1006 27.776C75.3886 27.776 75.6766 27.808 75.9166 27.888L76.1566 26.144C75.9166 26.064 75.6286 26.032 75.3246 26.032C74.2526 26.032 73.3566 26.624 72.8126 27.52H72.6846V26.192H71.1326V34ZM78.4806 24.464C79.1046 24.464 79.5846 23.984 79.5846 23.36C79.5846 22.752 79.1046 22.272 78.4806 22.272C77.8566 22.272 77.3766 22.752 77.3766 23.36C77.3766 23.984 77.8566 24.464 78.4806 24.464ZM77.6326 34H79.3286V26.192H77.6326V34ZM81.3201 34.032L82.8561 34V33.072H82.9681C83.5601 33.824 84.4721 34.256 85.5281 34.256C87.7681 34.256 89.4801 32.528 89.4801 30.096C89.4801 27.664 87.7681 25.936 85.5281 25.936C84.4881 25.936 83.5601 26.352 82.9681 27.088H82.8721L83.0161 26.064V22.224H81.3201V34.032ZM82.8881 30.096C82.8881 28.512 83.8961 27.424 85.3361 27.424C86.7761 27.424 87.7841 28.512 87.7841 30.096C87.7841 31.664 86.7761 32.768 85.3361 32.768C83.8961 32.768 82.8881 31.664 82.8881 30.096ZM98.4953 29.904C98.4953 27.328 96.6713 25.936 94.6553 25.936C92.0312 25.936 90.5753 27.856 90.5753 29.968C90.5753 32.208 92.1113 34.256 94.9113 34.256C96.1113 34.256 97.2953 33.856 98.1913 33.088L97.2953 31.984C96.6393 32.48 95.7113 32.784 94.9113 32.784C93.3913 32.784 92.4153 31.776 92.2553 30.656H98.4633C98.4953 30.384 98.4953 30.096 98.4953 29.904ZM92.2713 29.296C92.4153 28.224 93.2793 27.392 94.6233 27.392C95.7113 27.392 96.7673 28.032 96.8313 29.296H92.2713Z" fill="white"/>
</svg>
