<svg width="256" height="56" viewBox="0 0 256 56" fill="none" xmlns="http://www.w3.org/2000/svg">
<rect width="256" height="56" rx="4" fill="#1C1E21"/>
<path d="M93.914 34H95.61V27.68H98.554V26.192H95.61V24.944C95.61 24.016 96.33 23.456 97.162 23.456C97.578 23.456 98.01 23.584 98.378 23.856L99.178 22.704C98.618 22.176 97.882 21.968 97.066 21.968C95.434 21.968 93.914 23.12 93.914 24.944V26.192H92.506V27.68H93.914V34ZM103.329 34.256C105.761 34.256 107.473 32.528 107.473 30.096C107.473 27.664 105.761 25.936 103.329 25.936C100.897 25.936 99.1846 27.664 99.1846 30.096C99.1846 32.528 100.897 34.256 103.329 34.256ZM103.329 32.768C101.889 32.768 100.881 31.664 100.881 30.096C100.881 28.512 101.889 27.424 103.329 27.424C104.769 27.424 105.777 28.512 105.777 30.096C105.777 31.664 104.769 32.768 103.329 32.768ZM109.008 34H110.704V29.76C110.704 28.48 111.76 27.776 112.976 27.776C113.264 27.776 113.552 27.808 113.792 27.888L114.032 26.144C113.792 26.064 113.504 26.032 113.2 26.032C112.128 26.032 111.232 26.624 110.688 27.52H110.56V26.192H109.008V34ZM119.06 22.736L122.132 34.064H124.34L126.404 26L126.532 25.008H126.692L126.836 26L128.932 34.064H131.108L134.132 22.736H132.42L130.228 30.816L130.084 31.728H129.956L129.796 30.816L127.716 22.736H125.54L123.476 30.8L123.316 31.728H123.188L123.012 30.8L120.82 22.736H119.06ZM136.496 24.464C137.12 24.464 137.6 23.984 137.6 23.36C137.6 22.752 137.12 22.272 136.496 22.272C135.872 22.272 135.392 22.752 135.392 23.36C135.392 23.984 135.872 24.464 136.496 24.464ZM135.648 34H137.344V26.192H135.648V34ZM139.336 34H141.032V29.888C141.032 28.272 142.2 27.472 143.288 27.472C144.168 27.472 144.968 28.032 144.968 29.312V34H146.664V29.264C146.664 27.008 145.144 25.936 143.608 25.936C142.616 25.936 141.624 26.384 141.016 27.232H140.888V26.192H139.336V34ZM148.138 30.096C148.138 32.528 149.85 34.256 152.106 34.256C153.146 34.256 154.026 33.824 154.65 33.072H154.762V34H156.298V22.224H154.602V26.064L154.746 27.088H154.65C154.026 26.352 153.146 25.936 152.106 25.936C149.85 25.936 148.138 27.664 148.138 30.096ZM149.834 30.096C149.834 28.512 150.842 27.424 152.282 27.424C153.722 27.424 154.73 28.512 154.73 30.096C154.73 31.664 153.722 32.768 152.282 32.768C150.842 32.768 149.834 31.664 149.834 30.096ZM161.985 34.256C164.417 34.256 166.129 32.528 166.129 30.096C166.129 27.664 164.417 25.936 161.985 25.936C159.553 25.936 157.841 27.664 157.841 30.096C157.841 32.528 159.553 34.256 161.985 34.256ZM161.985 32.768C160.545 32.768 159.537 31.664 159.537 30.096C159.537 28.512 160.545 27.424 161.985 27.424C163.425 27.424 164.433 28.512 164.433 30.096C164.433 31.664 163.425 32.768 161.985 32.768ZM166.836 26.192L169.46 34.128H171.204L173.012 29.056L173.236 28.096H173.364L173.572 29.056L175.38 34.128H177.092L179.748 26.192H178.084L176.532 31.024L176.34 32H176.212L175.988 31.024L174.292 26.192H172.388L170.676 31.024L170.452 32H170.324L170.132 31.024L168.596 26.192H166.836ZM183.939 34.256C185.667 34.256 187.139 33.36 187.139 31.76C187.139 30.608 186.419 29.76 184.771 29.392L183.587 29.12C182.803 28.928 182.403 28.624 182.403 28.208C182.403 27.712 182.947 27.424 183.891 27.424C184.771 27.424 185.651 27.76 186.147 28.176L187.123 27.04C186.387 26.4 185.155 25.936 183.923 25.936C182.227 25.936 180.707 26.784 180.707 28.32C180.707 29.44 181.491 30.288 183.075 30.656L184.355 30.96C185.091 31.136 185.443 31.408 185.443 31.872C185.443 32.432 184.931 32.768 184.019 32.768C183.043 32.768 182.195 32.336 181.507 31.712L180.483 32.832C181.331 33.696 182.627 34.256 183.939 34.256Z" fill="white"/>
<path d="M52 19.75V27.25H62.5V18.4375L52 19.75Z" fill="white"/>
<path d="M64 18.25V27.25H76V16.75L64 18.25Z" fill="white"/>
<path d="M64 28.75V37.75L76 39.25V28.75H64Z" fill="white"/>
<path d="M52 28.75V36.25L62.5 37.5625V28.75H52Z" fill="white"/>
</svg>
