<svg width="256" height="56" viewBox="0 0 256 56" fill="none" xmlns="http://www.w3.org/2000/svg">
<rect width="256" height="56" rx="4" fill="#1C1E21"/>
<path d="M102.898 34H104.594V27.68H107.538V26.192H104.594V24.944C104.594 24.016 105.314 23.456 106.146 23.456C106.562 23.456 106.994 23.584 107.362 23.856L108.162 22.704C107.602 22.176 106.866 21.968 106.05 21.968C104.418 21.968 102.898 23.12 102.898 24.944V26.192H101.49V27.68H102.898V34ZM112.313 34.256C114.745 34.256 116.457 32.528 116.457 30.096C116.457 27.664 114.745 25.936 112.313 25.936C109.881 25.936 108.169 27.664 108.169 30.096C108.169 32.528 109.881 34.256 112.313 34.256ZM112.313 32.768C110.873 32.768 109.865 31.664 109.865 30.096C109.865 28.512 110.873 27.424 112.313 27.424C113.753 27.424 114.761 28.512 114.761 30.096C114.761 31.664 113.753 32.768 112.313 32.768ZM117.992 34H119.688V29.76C119.688 28.48 120.744 27.776 121.96 27.776C122.248 27.776 122.536 27.808 122.776 27.888L123.016 26.144C122.776 26.064 122.488 26.032 122.184 26.032C121.112 26.032 120.216 26.624 119.672 27.52H119.544V26.192H117.992V34ZM128.429 29.888C128.429 32.56 130.477 34.256 132.973 34.256C135.533 34.256 137.565 32.56 137.565 29.888V22.736H135.853V29.888C135.853 31.616 134.589 32.656 133.005 32.656C131.437 32.656 130.157 31.616 130.157 29.888V22.736H128.429V29.888ZM139.523 34.032L141.059 34V33.072H141.171C141.763 33.824 142.675 34.256 143.731 34.256C145.971 34.256 147.683 32.528 147.683 30.096C147.683 27.664 145.971 25.936 143.731 25.936C142.691 25.936 141.763 26.352 141.171 27.088H141.075L141.219 26.064V22.224H139.523V34.032ZM141.091 30.096C141.091 28.512 142.099 27.424 143.539 27.424C144.979 27.424 145.987 28.512 145.987 30.096C145.987 31.664 144.979 32.768 143.539 32.768C142.099 32.768 141.091 31.664 141.091 30.096ZM152.858 34.256C155.05 34.256 156.522 32.832 156.522 30.752V26.192H154.826V30.88C154.826 31.888 153.914 32.72 152.858 32.72C151.818 32.72 150.89 31.888 150.89 30.88V26.192H149.194V30.752C149.194 32.832 150.682 34.256 152.858 34.256ZM158.476 34H160.172V29.888C160.172 28.272 161.34 27.472 162.428 27.472C163.308 27.472 164.108 28.032 164.108 29.312V34H165.804V29.264C165.804 27.008 164.284 25.936 162.748 25.936C161.756 25.936 160.764 26.384 160.156 27.232H160.028V26.192H158.476V34ZM170.958 34.256C171.694 34.256 172.35 34.128 173.038 33.776L172.542 32.416C172.174 32.608 171.758 32.72 171.406 32.72C170.718 32.72 170.19 32.336 170.19 31.472V27.68H172.83V26.192H170.19V23.952H168.494V26.192H167.086V27.68H168.494V31.472C168.494 33.328 169.486 34.256 170.958 34.256ZM178.14 34.256C180.332 34.256 181.804 32.832 181.804 30.752V26.192H180.108V30.88C180.108 31.888 179.196 32.72 178.14 32.72C177.1 32.72 176.172 31.888 176.172 30.88V26.192H174.476V30.752C174.476 32.832 175.964 34.256 178.14 34.256Z" fill="white"/>
<g clip-path="url(#clip0)">
<path d="M69.2124 27.7319C69.2124 25.8778 70.0828 24.2274 71.4345 23.1648L69.3656 19.8533C67.6317 21.0986 66.327 22.901 65.7114 24.9992C66.675 25.6194 67.3141 26.7031 67.3141 27.9347C67.3141 29.1227 66.7234 30.1701 65.8168 30.8005C66.4786 32.7879 67.7682 34.4892 69.4505 35.67L71.3746 32.2478C70.0562 31.1856 69.2124 29.5571 69.2124 27.7319Z" fill="white"/>
<path d="M66.3363 27.9347C66.3363 29.3202 65.2111 30.4442 63.826 30.4442C62.4402 30.4442 61.3159 29.3202 61.3159 27.9347C61.3159 26.5499 62.4402 25.426 63.826 25.426C65.2111 25.426 66.3363 26.5499 66.3363 27.9347Z" fill="white"/>
<path d="M80.4315 34.0027C81.0153 34.0027 81.5649 34.1455 82.0478 34.3991C83.5519 32.8138 84.5239 30.7221 84.6846 28.4053L80.7862 28.3298C80.4861 31.2536 78.016 33.5314 75.0138 33.5314C74.1828 33.5314 73.3898 33.3566 72.6742 33.0405L70.7363 36.4309C72.0282 37.0666 73.4784 37.4237 75.0138 37.4237C75.6763 37.4237 76.3261 37.3566 76.9523 37.2288C77.0858 35.4257 78.5922 34.0027 80.4315 34.0027Z" fill="white"/>
<path d="M82.9401 37.4914C82.9401 38.8765 81.8173 40 80.4314 40C79.0455 40 77.9219 38.8765 77.9219 37.4914C77.9219 36.1051 79.0455 34.9819 80.4314 34.9819C81.8173 34.9819 82.9401 36.1051 82.9401 37.4914Z" fill="white"/>
<path d="M82.3147 21.3577C81.7467 21.7599 81.0516 21.998 80.301 21.998C78.3731 21.998 76.8121 20.4365 76.8121 18.5098C76.8121 18.4074 76.8167 18.3084 76.8242 18.2091C76.2381 18.0969 75.6324 18.0393 75.0138 18.0393C73.4642 18.0393 71.9987 18.404 70.7 19.0499L72.6264 22.4425C73.355 22.1143 74.1631 21.9297 75.0138 21.9297C77.9894 21.9297 80.442 24.1707 80.7771 27.057L84.6755 26.938C84.5033 24.8096 83.6414 22.8762 82.3147 21.3577Z" fill="white"/>
<path d="M82.8091 18.5099C82.8091 19.8957 81.6885 21.0193 80.3012 21.0193C78.9154 21.0193 77.7917 19.8957 77.7917 18.5099C77.7917 17.1239 78.9153 16 80.3011 16C81.6885 16 82.8091 17.1239 82.8091 18.5099Z" fill="white"/>
</g>
<defs>
<clipPath id="clip0">
<rect width="24" height="24" fill="white" transform="translate(61 16)"/>
</clipPath>
</defs>
</svg>
