<svg width="340" height="340" viewBox="0 0 340 340" fill="none" xmlns="http://www.w3.org/2000/svg">
<path d="M316.2 249.479C316.2 259.514 308.108 267.606 298.073 267.606H41.9267C31.8923 267.606 23.8 259.514 23.8 249.479H316.2Z" fill="black"/>
<path d="M280.809 249.479H59.1897V122.161C59.1897 112.666 66.9583 104.898 76.4532 104.898H263.546C273.041 104.898 280.809 112.666 280.809 122.161V249.479Z" fill="black"/>
<path d="M265.597 120.219H74.5115V249.48H265.597V120.219Z" fill="white"/>
<path d="M204.311 128.204H135.689C132.667 128.204 130.186 125.722 130.186 122.701V74.4712C130.186 71.4501 132.667 68.9685 135.689 68.9685H204.311C207.332 68.9685 209.814 71.4501 209.814 74.4712V122.593C209.814 125.722 207.332 128.204 204.311 128.204Z" fill="#50C1D6"/>
<path d="M209.814 122.593V74.4711L170 103.28L204.311 128.096C207.332 128.204 209.814 125.722 209.814 122.593Z" fill="#50C1D6"/>
<path d="M130.186 122.593V74.4711L170 103.28L135.689 128.096C132.667 128.204 130.186 125.722 130.186 122.593Z" fill="#50C1D6"/>
<path d="M204.311 68.9685H135.689C132.667 68.9685 130.186 71.4501 130.186 74.4712L170 103.28L209.814 74.4712C209.814 71.4501 207.332 68.9685 204.311 68.9685Z" fill="#50C1D6"/>
<path d="M204.311 68.9685H135.689C132.667 68.9685 130.186 71.4501 130.186 74.4712L170 103.28L209.814 74.4712C209.814 71.4501 207.332 68.9685 204.311 68.9685Z" fill="#3E46AE"/>
<path d="M130.186 157.12V207.616C130.186 210.637 132.56 213.011 135.581 213.011H191.471L209.814 231.353V213.011V157.12C209.814 154.099 207.44 151.725 204.419 151.725H135.473C132.56 151.725 130.186 154.207 130.186 157.12Z" fill="#FCB20D"/>
<path d="M191.471 188.626C194.868 188.626 197.621 185.873 197.621 182.476C197.621 179.079 194.868 176.326 191.471 176.326C188.075 176.326 185.321 179.079 185.321 182.476C185.321 185.873 188.075 188.626 191.471 188.626Z" fill="white"/>
<path d="M170 188.626C173.396 188.626 176.15 185.873 176.15 182.476C176.15 179.079 173.396 176.326 170 176.326C166.603 176.326 163.85 179.079 163.85 182.476C163.85 185.873 166.603 188.626 170 188.626Z" fill="white"/>
<path d="M148.528 188.626C151.925 188.626 154.678 185.873 154.678 182.476C154.678 179.079 151.925 176.326 148.528 176.326C145.132 176.326 142.378 179.079 142.378 182.476C142.378 185.873 145.132 188.626 148.528 188.626Z" fill="white"/>
<path d="M163.85 197.689L148.528 213.011H170H191.471L176.15 197.689C172.697 194.345 167.302 194.345 163.85 197.689Z" fill="#FE5C15"/>
</svg>
