<svg width="160" height="160" viewBox="0 0 160 160" fill="none" xmlns="http://www.w3.org/2000/svg">
<circle cx="80" cy="80" r="80" fill="#EFF1F3"/>
<path d="M79.8877 91.2377L39.3877 67.4376L79.8877 43.5876L120.388 67.4376L79.8877 91.2377Z" fill="#67727D"/>
<path d="M79.8877 138.837V91.2375L120.388 67.4375V115.038L79.8877 138.837Z" fill="#90A0AF"/>
<path d="M79.8877 91.2375L120.388 67.4375V115.037L79.8877 91.2375Z" fill="black"/>
<path d="M79.8877 138.837V91.2375L39.3877 67.4375V115.038L79.8877 138.837Z" fill="#67727D"/>
<path d="M96.0877 34.0875L79.8877 43.5875L120.388 67.3875L134.788 58.9375C137.438 57.3875 137.438 53.5875 134.788 52.0375L104.188 34.0875C101.688 32.6375 98.5877 32.6375 96.0877 34.0875Z" fill="#C7CFD7"/>
<path d="M63.6875 34.0875L79.8875 43.5875L39.3875 67.3875L24.9875 58.9375C22.3375 57.3875 22.3375 53.5875 24.9875 52.0375L55.5875 34.0875C58.0875 32.6375 61.1875 32.6375 63.6875 34.0875Z" fill="#C7CFD7"/>
<path d="M79.8877 91.2377L39.3877 67.4376L79.8877 43.5876V91.2377Z" fill="#90A0AF"/>
<path d="M96.0877 100.737L79.8877 91.2375L120.388 67.4375L134.788 75.8875C137.438 77.4375 137.438 81.2375 134.788 82.7875L104.238 100.737C101.688 102.187 98.5877 102.187 96.0877 100.737Z" fill="#C7CFD7"/>
<path d="M63.6875 100.737L79.8875 91.2375L39.3875 67.4375L24.9875 75.8875C22.3375 77.4375 22.3375 81.2375 24.9875 82.7875L55.5375 100.737C58.0875 102.187 61.1875 102.187 63.6875 100.737Z" fill="#C7CFD7"/>
<path d="M91.8378 69.7876C91.1878 69.1876 90.7878 68.3376 90.7878 67.4376C90.7878 66.5376 91.1878 65.6876 91.8378 65.0876L94.7378 62.4876L91.4378 56.6876L87.6878 58.0376C86.9378 58.3376 86.0878 58.2376 85.3378 57.7876C85.2878 57.7376 85.2378 57.7376 85.1878 57.6876C84.4878 57.2876 83.9878 56.5876 83.8378 55.7876L83.0878 51.7876H76.5378L75.7878 55.7876C75.6378 56.5876 75.1378 57.2876 74.4378 57.6876C74.3878 57.7376 74.3378 57.7376 74.2878 57.7876C73.5878 58.2376 72.7378 58.2876 71.9378 58.0376L68.1878 56.6876L64.9878 62.4876L67.8878 65.0876C68.5378 65.6876 68.9378 66.5376 68.9378 67.4376C68.9378 68.3376 68.5378 69.1876 67.8878 69.7876L64.9878 72.3876L68.2878 78.1876L72.0378 76.8376C72.7878 76.5376 73.6378 76.6376 74.3878 77.0876C74.4378 77.1376 74.4878 77.1376 74.5378 77.1876C75.2378 77.5876 75.7378 78.2876 75.8878 79.0876L76.6378 83.0876H83.1878L83.9378 79.0876C84.0878 78.2876 84.5878 77.5876 85.2878 77.1876C85.3378 77.1376 85.3878 77.1376 85.4378 77.0876C86.1378 76.6376 86.9878 76.5876 87.7878 76.8376L91.5378 78.1876L94.8378 72.3876L91.8378 69.7876Z" fill="#2ED19F"/>
<path d="M79.8879 71.2377C81.9866 71.2377 83.6879 69.5364 83.6879 67.4377C83.6879 65.339 81.9866 63.6377 79.8879 63.6377C77.7892 63.6377 76.0879 65.339 76.0879 67.4377C76.0879 69.5364 77.7892 71.2377 79.8879 71.2377Z" fill="#90A0AF"/>
</svg>
