<svg width="167" height="165" viewBox="0 0 167 165" fill="none" xmlns="http://www.w3.org/2000/svg">
<circle cx="80" cy="82" r="80" fill="#EFF1F3"/>
<path d="M87.7117 92.2748L95.1127 68.1867L85.8614 57.2249H70.6056H64.1472C62.4715 57.2249 61.0053 58.3071 60.5166 59.9129L59.3994 63.5087L58.387 66.8252L57.8983 68.466L57.7237 69.0245L55.9433 74.7847L55.0356 77.7521H61.529C63.2047 77.7521 64.6709 76.6699 65.1596 75.064L67.0099 69.0245L67.6732 66.8252L67.8477 66.3015H77.1339L75.144 72.7599L72.002 83.0236C71.4086 84.9785 71.8275 87.143 73.1541 88.7139L87.3626 105.576V120.552C87.3626 123.066 89.3874 125.09 91.9009 125.09H96.6487V102.853L87.7117 92.2748Z" fill="#90A0AF"/>
<path d="M89.0382 53.5942C93.2606 53.5942 96.6835 50.1712 96.6835 45.9488C96.6835 41.7264 93.2606 38.3035 89.0382 38.3035C84.8158 38.3035 81.3928 41.7264 81.3928 45.9488C81.3928 50.1712 84.8158 53.5942 89.0382 53.5942Z" fill="#2ED19F"/>
<path d="M99.8953 73.9119L96.8232 83.966L103.84 92.3096C105.306 94.0551 107.82 94.4391 109.74 93.2172L113.964 90.5641L99.8953 73.9119Z" fill="#697580"/>
<path d="M69.0347 93.0427L65.6135 103.83L60.8308 119.365C59.9581 122.193 62.0876 125.055 65.055 125.055H68.3714L70.117 119.33L74.9346 103.97C75.4931 102.154 75.1091 100.199 73.8873 98.768L69.0347 93.0427Z" fill="#697580"/>
</svg>
