<svg width="160" height="160" viewBox="0 0 160 160" fill="none" xmlns="http://www.w3.org/2000/svg">
<circle cx="80" cy="80" r="80" fill="#EFF1F3"/>
<path d="M63.7852 109.394C68.4772 112.016 73.9282 113.465 79.6552 113.465C97.9402 113.465 112.775 98.6301 112.775 80.3451C112.775 62.0601 97.9402 47.2251 79.6552 47.2251C61.3702 47.2251 46.5352 62.0601 46.5352 80.3451C46.5352 82.6221 46.7422 84.8301 47.2252 87.0381C47.4322 88.0041 47.6392 88.9701 47.9152 89.8671" stroke="#90A0AF" stroke-width="11" stroke-miterlimit="10"/>
<path d="M60.266 80.0691L46.466 100.079L32.666 80.0691H40.946H46.466H51.986H60.266Z" fill="#67727D"/>
<path d="M79.655 58.2651V80.3451H98.975" stroke="#2ED19F" stroke-width="11" stroke-miterlimit="10"/>
<path d="M85.175 80.3452H98.9751" stroke="#2ED19F" stroke-width="11" stroke-miterlimit="10" stroke-linejoin="bevel"/>
<path d="M107.117 82.967C106.22 92.282 100.7 100.286 92.8342 104.564L100.838 112.568C108.083 107.807 113.603 100.631 116.363 92.213L107.117 82.967Z" fill="#67727D"/>
</svg>
