<svg width="160" height="160" viewBox="0 0 160 160" fill="none" xmlns="http://www.w3.org/2000/svg">
<circle cx="80" cy="80" r="80" fill="#EFF1F3"/>
<path d="M115.12 68.6497V107.9C115.12 112.421 111.421 116.12 106.9 116.12H52.7851C47.8531 116.12 43.8801 112.147 43.8801 107.215V68.6497H115.12Z" fill="#90A0AF"/>
<path d="M115.12 77.5547H43.8801V86.4597H115.12V77.5547Z" fill="black"/>
<path d="M115.12 68.6497H43.8801V77.5547H115.12V68.6497Z" fill="#90A0AF"/>
<path d="M61.6902 77.5547H52.7852L61.6902 68.6497H70.5952L61.6902 77.5547Z" fill="#1C1E21"/>
<path d="M79.5002 77.5547H70.5952L79.5002 68.6497H88.4052L79.5002 77.5547Z" fill="#1C1E21"/>
<path d="M97.3103 77.5547H88.4053L97.3103 68.6497H106.215L97.3103 77.5547Z" fill="#1C1E21"/>
<path d="M115.12 77.5547H106.215L115.12 68.6497V77.5547Z" fill="#1C1E21"/>
<path d="M48.3326 70.8416C49.5656 70.8416 50.5246 71.869 50.5246 73.0335C50.5246 74.2665 49.4971 75.2255 48.3326 75.2255C47.0996 75.2255 46.1406 74.198 46.1406 73.0335C46.1406 71.869 47.0996 70.8416 48.3326 70.8416Z" fill="#1C1E21"/>
<path d="M90.2546 96.8031L74.7051 86.4596V107.215L90.2546 96.8031Z" fill="#2ED19F"/>
<path d="M111.01 43.7841L112.723 50.1546L43.8802 68.6496L42.1677 62.2791C41.0032 57.8951 43.6062 53.3741 47.9902 52.2096L100.941 37.9616C105.325 36.7971 109.846 39.4001 111.01 43.7841Z" fill="#1C1E21"/>
<path d="M110.051 41.6606L41.8936 59.9501C41.8936 60.7036 41.9621 61.4571 42.1676 62.2106L42.3731 62.8956L43.8801 68.6496L112.723 50.2231L111.01 43.8526C110.805 43.0306 110.462 42.2771 110.051 41.6606Z" fill="#90A0AF"/>
<path d="M58.8131 55.4291L54.4976 53.9221L50.1821 57.6896L61.0736 63.9916L69.7046 61.7311L58.8131 55.4291Z" fill="#1C1E21"/>
<path d="M76.0067 50.771L70.5952 49.4695L67.3757 53.1L78.2672 59.402L86.8982 57.073L76.0067 50.771Z" fill="#1C1E21"/>
<path d="M93.2001 46.1815L88.4051 45.6335L84.5691 48.5105L95.5291 54.8125L104.092 52.4835L93.2001 46.1815Z" fill="#1C1E21"/>
<path d="M46.4831 61.046C45.3186 61.3885 44.5651 62.553 44.9076 63.786C45.2501 64.9505 46.4146 65.704 47.6476 65.3615C48.8121 65.019 49.5656 63.8545 49.2231 62.6215C48.8806 61.3885 47.6476 60.7035 46.4831 61.046Z" fill="#1C1E21"/>
<path d="M101.763 43.8527L112.654 50.1547L110.942 43.7842C110.736 43.0307 110.394 42.2772 110.051 41.6607L103.133 40.9072L101.763 43.8527Z" fill="#1C1E21"/>
</svg>
