<svg width="160" height="160" viewBox="0 0 160 160" fill="none" xmlns="http://www.w3.org/2000/svg">
<circle cx="80" cy="80" r="80" fill="#EFF1F3"/>
<path d="M123.967 105.75L116.18 97.9633V68.581C116.18 48.3072 99.7262 32 79.5993 32C59.3256 32 43.0184 48.4541 43.0184 68.581V97.9633L35.2321 105.75C33.1753 107.806 32 110.598 32 113.536V120H43.0184H116.327H127.346V113.536C127.199 110.598 126.023 107.806 123.967 105.75Z" fill="#90A0AF"/>
<path d="M79.5992 90.6174C91.7698 90.6174 101.636 80.7512 101.636 68.5807C101.636 56.4101 91.7698 46.5439 79.5992 46.5439C67.4287 46.5439 57.5625 56.4101 57.5625 68.5807C57.5625 80.7512 67.4287 90.6174 79.5992 90.6174Z" fill="#1C1E21"/>
<path d="M79.5994 79.5992C85.6847 79.5992 90.6178 74.6661 90.6178 68.5809C90.6178 62.4956 85.6847 57.5625 79.5994 57.5625C73.5141 57.5625 68.5811 62.4956 68.5811 68.5809C68.5811 74.6661 73.5141 79.5992 79.5994 79.5992Z" fill="#2ED19F"/>
<path d="M32 113.389V119.853H43.0184H79.5993L43.0184 97.8164L35.2321 105.603C33.1753 107.806 32 110.598 32 113.389Z" fill="#67727D"/>
<path d="M127.199 119.853V113.389C127.199 110.451 126.023 107.659 123.967 105.603L116.18 97.8164L79.5994 119.853H116.18H127.199Z" fill="#67727D"/>
</svg>
