<svg width="160" height="160" viewBox="0 0 160 160" fill="none" xmlns="http://www.w3.org/2000/svg">
<circle cx="80" cy="80" r="80" fill="#EFF1F3"/>
<path d="M47.625 62.7917H37V48.625C37 42.6042 41.6042 38 47.625 38H61.7917V48.625H47.625V62.7917ZM111.375 38H97.2083V48.625H111.375V62.7917H122V48.625C122 42.6042 117.396 38 111.375 38ZM47.625 98.2083H37V112.375C37 118.396 41.6042 123 47.625 123H61.7917V112.375H47.625V98.2083ZM111.375 112.375H97.2083V123H111.375C117.396 123 122 118.396 122 112.375V98.2083H111.375V112.375Z" fill="#2ED19F"/>
<path d="M84.0111 83.1422L89.7973 64.3097L82.5645 55.7395H70.6373H65.588C64.2779 55.7395 63.1315 56.5856 62.7494 57.8411L61.876 60.6523L61.0845 63.2452L60.7024 64.528L60.566 64.9647L59.174 69.4681L58.4644 71.7881H63.5409C64.851 71.7881 65.9974 70.942 66.3795 69.6865L67.826 64.9647L68.3446 63.2452L68.4811 62.8358H75.7411L74.1854 67.8851L71.729 75.9094C71.265 77.4378 71.5925 79.13 72.6297 80.3582L83.7381 93.541V105.25C83.7381 107.215 85.3212 108.798 87.2863 108.798H90.9982V91.4121L84.0111 83.1422Z" fill="#90A0AF"/>
<path d="M85.0481 52.9011C88.3492 52.9011 91.0253 50.225 91.0253 46.9238C91.0253 43.6227 88.3492 40.9465 85.0481 40.9465C81.7469 40.9465 79.0708 43.6227 79.0708 46.9238C79.0708 50.225 81.7469 52.9011 85.0481 52.9011Z" fill="#2ED19F"/>
<path d="M93.5366 68.7859L91.1348 76.6464L96.6208 83.1696C97.7671 84.5342 99.7322 84.8345 101.233 83.8792L104.536 81.8049L93.5366 68.7859Z" fill="#697580"/>
<path d="M69.409 83.7427L66.7342 92.1764L62.995 104.322C62.3127 106.533 63.9776 108.771 66.2975 108.771H68.8904L70.2551 104.295L74.0216 92.2855C74.4583 90.8663 74.158 89.3378 73.2028 88.2188L69.409 83.7427Z" fill="#697580"/>
</svg>
