<svg width="99" height="28" viewBox="0 0 99 28" fill="none" xmlns="http://www.w3.org/2000/svg">
<path d="M17.9121 1.08984H23.5371L14.6953 27H9.58008L0.826172 1.08984H6.60938L12.2344 20.7598L17.9121 1.08984ZM30.8672 5.55469H25.7871V0.931641H30.8672V5.55469ZM25.7871 7.83984H30.8672V27H25.7871V7.83984ZM42.8027 7.38281C43.9629 7.38281 44.9941 7.64063 45.8965 8.15625C46.7988 8.66016 47.5312 9.36328 48.0938 10.2656V1.125H53.1738V27H48.3047V24.3457C47.5898 25.4824 46.7754 26.3086 45.8613 26.8242C44.9473 27.3398 43.8105 27.5977 42.4512 27.5977C40.2129 27.5977 38.3262 26.6953 36.791 24.8906C35.2676 23.0742 34.5059 20.748 34.5059 17.9121C34.5059 14.6426 35.2559 12.0703 36.7559 10.1953C38.2676 8.32031 40.2832 7.38281 42.8027 7.38281ZM43.8926 23.3789C45.3105 23.3789 46.3887 22.8516 47.127 21.7969C47.8652 20.7422 48.2344 19.377 48.2344 17.7012C48.2344 15.3574 47.6426 13.6816 46.459 12.6738C45.7324 12.0645 44.8887 11.7598 43.9277 11.7598C42.4629 11.7598 41.3848 12.3164 40.6934 13.4297C40.0137 14.5312 39.6738 15.9023 39.6738 17.543C39.6738 19.3125 40.0195 20.7305 40.7109 21.7969C41.4141 22.8516 42.4746 23.3789 43.8926 23.3789ZM66.3398 23.4668C67.8047 23.4668 68.9297 22.9453 69.7148 21.9023C70.5 20.8594 70.8926 19.377 70.8926 17.4551C70.8926 15.5332 70.5 14.0566 69.7148 13.0254C68.9297 11.9824 67.8047 11.4609 66.3398 11.4609C64.875 11.4609 63.7441 11.9824 62.9473 13.0254C62.1621 14.0566 61.7695 15.5332 61.7695 17.4551C61.7695 19.377 62.1621 20.8594 62.9473 21.9023C63.7441 22.9453 64.875 23.4668 66.3398 23.4668ZM76.1484 17.4551C76.1484 20.2676 75.3398 22.6758 73.7227 24.6797C72.1055 26.6719 69.6504 27.668 66.3574 27.668C63.0645 27.668 60.6094 26.6719 58.9922 24.6797C57.375 22.6758 56.5664 20.2676 56.5664 17.4551C56.5664 14.6895 57.375 12.293 58.9922 10.2656C60.6094 8.23828 63.0645 7.22461 66.3574 7.22461C69.6504 7.22461 72.1055 8.23828 73.7227 10.2656C75.3398 12.293 76.1484 14.6895 76.1484 17.4551ZM88.3477 23.4668C89.8125 23.4668 90.9375 22.9453 91.7227 21.9023C92.5078 20.8594 92.9004 19.377 92.9004 17.4551C92.9004 15.5332 92.5078 14.0566 91.7227 13.0254C90.9375 11.9824 89.8125 11.4609 88.3477 11.4609C86.8828 11.4609 85.752 11.9824 84.9551 13.0254C84.1699 14.0566 83.7773 15.5332 83.7773 17.4551C83.7773 19.377 84.1699 20.8594 84.9551 21.9023C85.752 22.9453 86.8828 23.4668 88.3477 23.4668ZM98.1562 17.4551C98.1562 20.2676 97.3477 22.6758 95.7305 24.6797C94.1133 26.6719 91.6582 27.668 88.3652 27.668C85.0723 27.668 82.6172 26.6719 81 24.6797C79.3828 22.6758 78.5742 20.2676 78.5742 17.4551C78.5742 14.6895 79.3828 12.293 81 10.2656C82.6172 8.23828 85.0723 7.22461 88.3652 7.22461C91.6582 7.22461 94.1133 8.23828 95.7305 10.2656C97.3477 12.293 98.1562 14.6895 98.1562 17.4551Z" fill="white"/>
</svg>
