<svg width="280" height="56" viewBox="0 0 280 56" fill="none" xmlns="http://www.w3.org/2000/svg">
<path fill-rule="evenodd" clip-rule="evenodd" d="M94.6729 16H73.3271C72.5923 16 72 16.5923 72 17.3271V38.6729C72 39.4002 72.5923 40 73.3271 40H84.821V30.7104H81.702V27.0815H84.821V24.4124C84.821 21.3158 86.7104 19.6289 89.477 19.6289C90.8041 19.6289 91.9363 19.7263 92.2737 19.7713V23.0103H90.3693C88.8622 23.0103 88.5773 23.7226 88.5773 24.7723V27.0815H92.1762L91.7113 30.7104H88.5698V39.9925H94.6729C95.0253 39.9925 95.3627 39.85 95.6101 39.6026C95.8575 39.3552 96 39.0178 96 38.6654V17.3271C96 16.5923 95.4077 16 94.6729 16Z" fill="#90A0AF"/>
<path d="M38.2267 16H17.7733C16.7867 16 16 16.7733 16 17.7333V38.2667C16 39.2267 16.7867 40 17.7733 40H38.2267C39.2 40 40 39.2267 40 38.2667V17.7333C40 16.7733 39.2 16 38.2267 16ZM23.12 36.4533H19.56V25H23.12V36.4533ZM21.3333 23.4267C20.1867 23.4267 19.2667 22.5067 19.2667 21.36C19.2667 20.2133 20.2 19.3067 21.3333 19.3067C22.4667 19.3067 23.4 20.2267 23.4 21.3733C23.4 22.52 22.48 23.4267 21.3333 23.4267ZM36.4533 36.4533H32.8933V30.88C32.8933 29.5467 32.8667 27.84 31.04 27.84C29.1867 27.84 28.9067 29.2933 28.9067 30.7867V36.4533H25.3467V25H28.76V26.56H28.8133C29.2933 25.6533 30.4533 24.7067 32.1867 24.7067C35.7867 24.7067 36.4533 27.08 36.4533 30.16V36.4533Z" fill="#90A0AF"/>
<path fill-rule="evenodd" clip-rule="evenodd" d="M151.987 27.9687C151.979 24.7147 151.964 24.3023 151.904 23.0277C151.844 21.7531 151.642 20.8834 151.342 20.1186C151.035 19.3314 150.622 18.6641 149.955 17.9968C149.288 17.3295 148.62 16.9246 147.826 16.6172C147.061 16.3248 146.191 16.1224 144.917 16.0624C143.634 16.0024 143.23 15.9949 139.968 16.0024C136.714 16.0099 136.302 16.0249 135.027 16.0849C133.753 16.1449 132.883 16.3473 132.118 16.6472C131.331 16.9546 130.663 17.367 129.996 18.0343C129.329 18.7016 128.924 19.3688 128.617 20.1561C128.324 20.9209 128.122 21.7981 128.062 23.0727C128.009 24.3473 127.994 24.7597 128.002 28.0136C128.009 31.2676 128.024 31.68 128.084 32.9546C128.144 34.2292 128.347 35.0989 128.647 35.8637C128.954 36.6509 129.366 37.3182 130.034 37.9855C130.701 38.6528 131.368 39.0577 132.163 39.3651C132.928 39.6575 133.798 39.8599 135.072 39.9199C136.354 39.9724 136.759 39.9874 140.013 39.9799C143.267 39.9724 143.679 39.9574 144.954 39.8974C146.229 39.8375 147.098 39.635 147.863 39.3351C148.65 39.0277 149.318 38.6153 149.985 37.948C150.652 37.2808 151.057 36.6135 151.365 35.8187C151.657 35.0539 151.859 34.1842 151.919 32.9096C151.979 31.635 151.994 31.2226 151.987 27.9687ZM149.768 32.8196C149.715 33.9893 149.52 34.6266 149.363 35.0464C149.145 35.6088 148.89 36.0061 148.47 36.426C148.051 36.8459 147.653 37.1083 147.091 37.3257C146.671 37.4907 146.034 37.6856 144.864 37.7456C143.597 37.8056 143.222 37.8206 140.021 37.8281C136.819 37.8356 136.437 37.8206 135.177 37.7681C134 37.7156 133.363 37.5207 132.943 37.3557C132.38 37.1383 131.983 36.8834 131.563 36.4635C131.143 36.0436 130.881 35.6463 130.663 35.0839C130.499 34.6641 130.304 34.0268 130.244 32.8571C130.184 31.59 130.169 31.2151 130.161 28.0136C130.154 24.8121 130.169 24.4298 130.221 23.1702C130.274 21.993 130.469 21.3632 130.633 20.9359C130.851 20.381 131.106 19.9762 131.526 19.5563C131.946 19.1364 132.343 18.874 132.905 18.6566C133.325 18.4916 133.962 18.2967 135.132 18.2367C136.399 18.1767 136.774 18.1617 139.976 18.1542C143.177 18.1467 143.559 18.1617 144.819 18.2142C145.989 18.2667 146.626 18.4616 147.046 18.6191C147.608 18.8365 148.006 19.0914 148.425 19.5113C148.845 19.9312 149.108 20.3285 149.325 20.8909C149.498 21.3182 149.693 21.9555 149.745 23.1252C149.805 24.3923 149.82 24.7672 149.827 27.9687C149.835 31.1702 149.82 31.5525 149.768 32.8196Z" fill="#90A0AF"/>
<path fill-rule="evenodd" clip-rule="evenodd" d="M139.983 21.8356C136.579 21.8431 133.827 24.6022 133.835 28.0062C133.842 31.4101 136.602 34.1617 140.006 34.1542C143.409 34.1467 146.161 31.3876 146.154 27.9837C146.146 24.5797 143.387 21.8281 139.983 21.8356ZM140.006 31.9874C137.801 31.9949 136.002 30.203 136.002 27.9987C136.002 25.7944 137.786 23.9949 139.991 23.9949C142.195 23.9874 143.994 25.7794 143.994 27.9837C143.994 30.188 142.21 31.9874 140.006 31.9874Z" fill="#90A0AF"/>
<path fill-rule="evenodd" clip-rule="evenodd" d="M146.379 20.1336C145.584 20.1336 144.939 20.7784 144.939 21.5731C144.939 22.3679 145.584 23.0127 146.379 23.0127C147.173 23.0127 147.818 22.3679 147.818 21.5731C147.818 20.7784 147.173 20.1336 146.379 20.1336Z" fill="#90A0AF"/>
<path fill-rule="evenodd" clip-rule="evenodd" d="M207.985 20.3067C207.085 20.7041 206.133 20.9665 205.158 21.079C206.186 20.4642 206.958 19.497 207.325 18.3573C206.358 18.9272 205.301 19.332 204.199 19.5495C202.669 17.93 200.247 17.5326 198.283 18.5823C196.319 19.632 195.306 21.8737 195.809 24.0406C191.85 23.8456 188.161 21.9712 185.664 18.8972C184.36 21.1465 185.027 24.0256 187.187 25.4651C186.407 25.4426 185.634 25.2327 184.952 24.8503C184.952 24.8728 184.952 24.8878 184.952 24.9103C184.952 27.2571 186.602 29.2739 188.903 29.7388C188.176 29.9337 187.419 29.9637 186.684 29.8213C187.329 31.8231 189.173 33.2027 191.28 33.2402C189.541 34.6123 187.381 35.3545 185.17 35.3545C184.78 35.3545 184.39 35.332 184 35.2871C186.249 36.7341 188.873 37.4989 191.543 37.4914V37.4989C200.6 37.4989 205.548 30.0012 205.548 23.4932C205.548 23.2833 205.548 23.0659 205.533 22.8559C206.493 22.1587 207.325 21.2964 207.985 20.3067Z" fill="#90A0AF"/>
<path fill-rule="evenodd" clip-rule="evenodd" d="M266.218 21.2091C265.874 19.9345 264.861 18.9298 263.572 18.5924C261.24 17.9776 251.905 18.0001 251.905 18.0001C251.905 18.0001 242.563 18.0226 240.239 18.6449C238.957 18.9898 237.945 19.9945 237.607 21.2691C236.985 23.5859 237 28.4069 237 28.4069C237 28.4069 237.008 33.2353 237.637 35.5446C237.982 36.8192 238.994 37.8239 240.284 38.1613C242.616 38.7761 251.95 38.7536 251.95 38.7536C251.95 38.7536 261.292 38.7311 263.617 38.1088C264.899 37.7639 265.911 36.7592 266.248 35.4846C266.871 33.1679 266.856 28.3469 266.856 28.3469C266.856 28.3469 266.848 23.5184 266.218 21.2091ZM248.944 32.8305L248.929 23.9308L256.696 28.3619L248.944 32.8305Z" fill="#90A0AF"/>
</svg>
