<svg width="156" height="56" viewBox="0 0 156 56" fill="none" xmlns="http://www.w3.org/2000/svg">
<path d="M46.672 28.368C46.672 31.792 48.992 34.256 52.416 34.256C55.712 34.256 57.808 31.984 57.808 29.056V28.256H51.952V29.808H56.032C55.792 31.6 54.4 32.656 52.416 32.656C50.016 32.656 48.416 30.928 48.416 28.368C48.416 25.824 50.032 24.064 52.464 24.064C53.888 24.064 55.024 24.656 55.808 25.696L57.088 24.624C56.08 23.28 54.448 22.48 52.464 22.48C49.008 22.48 46.672 24.928 46.672 28.368ZM66.8546 29.904C66.8546 27.328 65.0306 25.936 63.0146 25.936C60.3906 25.936 58.9346 27.856 58.9346 29.968C58.9346 32.208 60.4706 34.256 63.2706 34.256C64.4706 34.256 65.6546 33.856 66.5506 33.088L65.6546 31.984C64.9986 32.48 64.0706 32.784 63.2706 32.784C61.7506 32.784 60.7746 31.776 60.6146 30.656H66.8226C66.8546 30.384 66.8546 30.096 66.8546 29.904ZM60.6306 29.296C60.7746 28.224 61.6386 27.392 62.9826 27.392C64.0706 27.392 65.1266 28.032 65.1906 29.296H60.6306ZM71.5834 34.256C72.3194 34.256 72.9754 34.128 73.6634 33.776L73.1674 32.416C72.7994 32.608 72.3834 32.72 72.0314 32.72C71.3434 32.72 70.8154 32.336 70.8154 31.472V27.68H73.4554V26.192H70.8154V23.952H69.1194V26.192H67.7114V27.68H69.1194V31.472C69.1194 33.328 70.1114 34.256 71.5834 34.256ZM79.2264 34H80.9224V29.888C80.9224 28.272 82.0904 27.472 83.1784 27.472C84.0584 27.472 84.8584 28.032 84.8584 29.312V34H86.5544V29.264C86.5544 27.008 85.0344 25.936 83.5144 25.936C82.5384 25.936 81.5304 26.384 80.8904 27.232H80.7784L80.9224 26.144V22.224H79.2264V34ZM95.9328 29.904C95.9328 27.328 94.1088 25.936 92.0928 25.936C89.4688 25.936 88.0128 27.856 88.0128 29.968C88.0128 32.208 89.5488 34.256 92.3488 34.256C93.5488 34.256 94.7328 33.856 95.6288 33.088L94.7328 31.984C94.0768 32.48 93.1488 32.784 92.3488 32.784C90.8288 32.784 89.8528 31.776 89.6928 30.656H95.9008C95.9328 30.384 95.9328 30.096 95.9328 29.904ZM89.7088 29.296C89.8528 28.224 90.7168 27.392 92.0608 27.392C93.1488 27.392 94.2048 28.032 94.2688 29.296H89.7088ZM97.5233 34H99.2193V22.224H97.5233V34ZM101.211 37.584H102.907V34.128L102.763 33.088H102.875C103.483 33.84 104.363 34.256 105.403 34.256C107.659 34.256 109.371 32.528 109.371 30.096C109.371 27.664 107.659 25.936 105.403 25.936C104.363 25.936 103.483 26.352 102.859 27.104H102.747V26.192H101.211V37.584ZM102.779 30.096C102.779 28.512 103.787 27.424 105.227 27.424C106.667 27.424 107.675 28.512 107.675 30.096C107.675 31.664 106.667 32.768 105.227 32.768C103.787 32.768 102.779 31.664 102.779 30.096Z" fill="white"/>
<rect x="1" y="1" width="154" height="54" rx="3" stroke="white" stroke-width="2"/>
</svg>
